<svg width="48" height="34" viewBox="0 0 48 34" fill="none" xmlns="http://www.w3.org/2000/svg">
<path d="M1 15L1 18.4786" stroke="white" stroke-width="2" stroke-linecap="round"/>
<path d="M4.03516 14L4.03516 20.2614" stroke="white" stroke-width="2" stroke-linecap="round"/>
<path d="M7.07129 11L7.07129 23.662" stroke="white" stroke-width="2" stroke-linecap="round"/>
<path d="M10.1064 8L10.1064 26.7843" stroke="white" stroke-width="2" stroke-linecap="round"/>
<path d="M13.1416 11V22.2706" stroke="white" stroke-width="2" stroke-linecap="round"/>
<path d="M16.1768 14L16.1768 20.2614" stroke="white" stroke-width="2" stroke-linecap="round"/>
<path d="M19.2129 15V18.4786" stroke="white" stroke-width="2" stroke-linecap="round"/>
<path d="M22.248 13L22.248 20.5137" stroke="white" stroke-width="2" stroke-linecap="round"/>
<path d="M25.2832 10L25.2832 24.0534" stroke="white" stroke-width="2" stroke-linecap="round"/>
<path d="M28.3184 6V28.6803" stroke="white" stroke-width="2" stroke-linecap="round"/>
<path d="M31.3545 1L31.3545 32.7246" stroke="white" stroke-width="2" stroke-linecap="round"/>
<path d="M34.3896 7L34.3896 27.0366" stroke="white" stroke-width="2" stroke-linecap="round"/>
<path d="M37.4248 11L37.4248 22.2706" stroke="white" stroke-width="2" stroke-linecap="round"/>
<path d="M40.4609 15V19.87" stroke="white" stroke-width="2" stroke-linecap="round"/>
<path d="M43.4961 12L43.4961 21.0443" stroke="white" stroke-width="2" stroke-linecap="round"/>
<path d="M46.5312 15L46.5312 18.4786" stroke="white" stroke-width="2" stroke-linecap="round"/>
</svg>
