<svg width="56" height="23" viewBox="0 0 56 23" fill="none" xmlns="http://www.w3.org/2000/svg">
<path d="M0 3C0 1.34315 1.34315 0 3 0H53C54.6569 0 56 1.34315 56 3V20C56 21.6569 54.6569 23 53 23H3C1.34314 23 0 21.6569 0 20V3Z" fill="white"/>
<path d="M5.9 4H11.11V5.12H7.13V7.03H10.66V8.15H7.13V11H5.9V4Z" fill="#5F256C"/>
<path d="M15.4925 7.47C15.9325 7.47 16.2825 7.36667 16.5425 7.16C16.8025 6.94667 16.9325 6.66 16.9325 6.3V6.28C16.9325 5.9 16.8058 5.61333 16.5525 5.42C16.2992 5.22 15.9425 5.12 15.4825 5.12H13.6925V7.47H15.4925ZM12.4625 4H15.5825C16.0225 4 16.4125 4.06333 16.7525 4.19C17.0925 4.31 17.3758 4.48 17.6025 4.7C17.7892 4.89333 17.9325 5.11667 18.0325 5.37C18.1325 5.62333 18.1825 5.90333 18.1825 6.21V6.23C18.1825 6.51667 18.1392 6.77667 18.0525 7.01C17.9725 7.23667 17.8592 7.44 17.7125 7.62C17.5658 7.79333 17.3892 7.94333 17.1825 8.07C16.9825 8.19 16.7592 8.28333 16.5125 8.35L18.4025 11H16.9525L15.2325 8.56H13.6925V11H12.4625V4Z" fill="#5F256C"/>
<path d="M19.6891 4H24.8791V5.1H20.9191V6.92H24.4291V8.02H20.9191V9.9H24.9291V11H19.6891V4Z" fill="#5F256C"/>
<path d="M26.3883 4H31.5783V5.1H27.6183V6.92H31.1283V8.02H27.6183V9.9H31.6283V11H26.3883V4Z" fill="#5F256C"/>
<path d="M5.3 13H6.66L8.77 18.38L10.87 13H12.2L9.29 20.05H8.21L5.3 13Z" fill="#5F256C"/>
<path d="M13.4 13H18.59V14.1H14.63V15.92H18.14V17.02H14.63V18.9H18.64V20H13.4V13Z" fill="#5F256C"/>
<path d="M23.1292 16.47C23.5692 16.47 23.9192 16.3667 24.1792 16.16C24.4392 15.9467 24.5692 15.66 24.5692 15.3V15.28C24.5692 14.9 24.4426 14.6133 24.1892 14.42C23.9359 14.22 23.5792 14.12 23.1192 14.12H21.3292V16.47H23.1292ZM20.0992 13H23.2192C23.6592 13 24.0492 13.0633 24.3892 13.19C24.7292 13.31 25.0126 13.48 25.2392 13.7C25.4259 13.8933 25.5692 14.1167 25.6692 14.37C25.7692 14.6233 25.8192 14.9033 25.8192 15.21V15.23C25.8192 15.5167 25.7759 15.7767 25.6892 16.01C25.6092 16.2367 25.4959 16.44 25.3492 16.62C25.2026 16.7933 25.0259 16.9433 24.8192 17.07C24.6192 17.19 24.3959 17.2833 24.1492 17.35L26.0392 20H24.5892L22.8692 17.56H21.3292V20H20.0992V13Z" fill="#5F256C"/>
<path d="M29.7758 20.1C29.2358 20.1 28.7191 20.01 28.2258 19.83C27.7324 19.6433 27.2758 19.36 26.8558 18.98L27.5958 18.1C27.9358 18.3933 28.2791 18.62 28.6258 18.78C28.9724 18.9333 29.3658 19.01 29.8058 19.01C30.1858 19.01 30.4858 18.93 30.7058 18.77C30.9324 18.61 31.0458 18.3967 31.0458 18.13V18.11C31.0458 17.9833 31.0224 17.8733 30.9758 17.78C30.9358 17.68 30.8558 17.5867 30.7358 17.5C30.6224 17.4133 30.4624 17.3333 30.2558 17.26C30.0558 17.1867 29.7924 17.1133 29.4658 17.04C29.0924 16.9533 28.7591 16.8567 28.4658 16.75C28.1791 16.6367 27.9358 16.5033 27.7358 16.35C27.5424 16.19 27.3924 15.9967 27.2858 15.77C27.1858 15.5433 27.1358 15.27 27.1358 14.95V14.93C27.1358 14.63 27.1958 14.3567 27.3158 14.11C27.4358 13.8567 27.5991 13.6433 27.8058 13.47C28.0191 13.29 28.2724 13.15 28.5658 13.05C28.8591 12.95 29.1791 12.9 29.5258 12.9C30.0391 12.9 30.4991 12.9767 30.9058 13.13C31.3191 13.2767 31.7058 13.4933 32.0658 13.78L31.4058 14.71C31.0858 14.4767 30.7691 14.3 30.4558 14.18C30.1424 14.0533 29.8258 13.99 29.5058 13.99C29.1458 13.99 28.8658 14.07 28.6658 14.23C28.4658 14.39 28.3658 14.5867 28.3658 14.82V14.84C28.3658 14.9733 28.3891 15.0933 28.4358 15.2C28.4824 15.3 28.5658 15.3933 28.6858 15.48C28.8124 15.56 28.9824 15.6367 29.1958 15.71C29.4158 15.7833 29.6924 15.86 30.0258 15.94C30.3924 16.0333 30.7158 16.1367 30.9958 16.25C31.2824 16.3633 31.5191 16.5033 31.7058 16.67C31.8924 16.83 32.0324 17.02 32.1258 17.24C32.2258 17.4533 32.2758 17.7033 32.2758 17.99V18.01C32.2758 18.3367 32.2124 18.63 32.0858 18.89C31.9658 19.15 31.7958 19.37 31.5758 19.55C31.3558 19.73 31.0924 19.8667 30.7858 19.96C30.4791 20.0533 30.1424 20.1 29.7758 20.1Z" fill="#5F256C"/>
<path d="M33.7923 13H35.0223V20H33.7923V13Z" fill="#5F256C"/>
<path d="M40.2561 18.99C40.6028 18.99 40.9194 18.9267 41.2061 18.8C41.4994 18.6667 41.7494 18.49 41.9561 18.27C42.1628 18.0433 42.3228 17.78 42.4361 17.48C42.5561 17.18 42.6161 16.86 42.6161 16.52V16.5C42.6161 16.16 42.5561 15.84 42.4361 15.54C42.3228 15.2333 42.1594 14.97 41.9461 14.75C41.7394 14.5233 41.4894 14.3433 41.1961 14.21C40.9028 14.0767 40.5828 14.01 40.2361 14.01C39.8894 14.01 39.5694 14.0767 39.2761 14.21C38.9894 14.3367 38.7428 14.5133 38.5361 14.74C38.3294 14.96 38.1661 15.22 38.0461 15.52C37.9328 15.82 37.8761 16.14 37.8761 16.48V16.5C37.8761 16.84 37.9328 17.1633 38.0461 17.47C38.1661 17.77 38.3294 18.0333 38.5361 18.26C38.7494 18.48 39.0028 18.6567 39.2961 18.79C39.5894 18.9233 39.9094 18.99 40.2561 18.99ZM40.2361 20.12C39.6961 20.12 39.2028 20.0267 38.7561 19.84C38.3094 19.6467 37.9261 19.3867 37.6061 19.06C37.2861 18.7333 37.0361 18.3533 36.8561 17.92C36.6761 17.48 36.5861 17.0133 36.5861 16.52V16.5C36.5861 16.0067 36.6761 15.5433 36.8561 15.11C37.0361 14.67 37.2894 14.2867 37.6161 13.96C37.9428 13.6267 38.3294 13.3633 38.7761 13.17C39.2228 12.9767 39.7161 12.88 40.2561 12.88C40.7961 12.88 41.2894 12.9767 41.7361 13.17C42.1828 13.3567 42.5661 13.6133 42.8861 13.94C43.2061 14.2667 43.4561 14.65 43.6361 15.09C43.8161 15.5233 43.9061 15.9867 43.9061 16.48V16.5C43.9061 16.9933 43.8161 17.46 43.6361 17.9C43.4561 18.3333 43.2028 18.7167 42.8761 19.05C42.5494 19.3767 42.1628 19.6367 41.7161 19.83C41.2694 20.0233 40.7761 20.12 40.2361 20.12Z" fill="#5F256C"/>
<path d="M45.3922 13H46.5322L50.2822 17.84V13H51.4922V20H50.4622L46.6022 15.02V20H45.3922V13Z" fill="#5F256C"/>
<path d="M42.9397 1.34278L43.3756 3.08038C43.6897 4.3327 44.6673 5.31032 45.9196 5.62443L47.6572 6.0603C48.1143 6.17501 48.1143 6.82499 47.6572 6.93969L45.9196 7.37556C44.6673 7.68967 43.6897 8.66729 43.3756 9.91961L42.9397 11.6572C42.825 12.1143 42.175 12.1143 42.0603 11.6572L41.6244 9.91961C41.3103 8.66729 40.3327 7.68967 39.0804 7.37556L37.3428 6.93969C36.8857 6.82499 36.8857 6.17501 37.3428 6.0603L39.0804 5.62443C40.3327 5.31032 41.3103 4.3327 41.6244 3.08038L42.0603 1.34278C42.175 0.885738 42.825 0.885738 42.9397 1.34278Z" fill="#44497B"/>
</svg>
