<svg width="23" height="39" viewBox="0 0 23 39" fill="none" xmlns="http://www.w3.org/2000/svg">
<path d="M7.41532 28.8261C4.49634 27.7697 2.12145 25.5922 0.819214 22.7783C0.819214 22.7783 -0.424125 19.8453 0.152681 16.6922C0.729488 13.539 2.97263 11.6656 4.28006 10.8824C6.56421 9.52594 12.1554 6.15015 13.7243 4.95236C15.2932 3.75458 17.6979 1.67126 19.1258 0C21.037 1.50939 22.1506 3.8094 22.1483 6.24228C22.1483 7.95194 21.5279 9.81003 20.5511 10.9797C19.5744 12.1493 18.872 12.9862 17.5364 13.9741C13.368 17.0607 8.14338 19.4537 6.7693 20.7155C5.58212 21.772 4.9631 23.3253 5.09881 24.9073C5.23451 26.4892 6.10907 27.9148 7.4589 28.7544" fill="white"/>
<path d="M7.51905 28.8142C11.0931 24.4726 16.0721 21.4824 21.6164 20.3478C22.3094 21.0657 22.9999 22.6746 22.9999 24.5069C22.9999 26.3393 21.7433 27.908 20.4993 28.8568C19.1361 29.8935 17.0213 31.1159 15.257 32.5115C13.4926 33.9071 9.59569 37.4939 9.50176 39C7.5749 37.8152 5.96283 35.4859 5.96283 33.0762C5.9618 31.5192 6.50937 30.0104 7.51143 28.8092" fill="white"/>
<path d="M14.479 22.4127C11.8085 23.8455 9.44165 25.7324 7.49782 27.9782C6.1434 27.1813 5.26587 25.8281 5.12971 24.3265C4.99354 22.825 5.61466 21.3506 6.80588 20.3478C8.74328 22.3543 11.7154 23.1539 14.4816 22.4127" fill="white" fill-opacity="0.4"/>
</svg>
