<svg width="25" height="25" viewBox="0 0 25 25" fill="none" xmlns="http://www.w3.org/2000/svg">
<path d="M3.8161 21.4911C2.62223 20.338 1.66995 18.9587 1.01484 17.4337C0.359723 15.9086 0.0148947 14.2684 0.000471959 12.6086C-0.0139507 10.9489 0.30232 9.30288 0.930832 7.76668C1.55934 6.23047 2.48751 4.83482 3.66117 3.66117C4.83482 2.48751 6.23047 1.55934 7.76668 0.930832C9.30288 0.30232 10.9489 -0.0139507 12.6086 0.000471959C14.2684 0.0148947 15.9086 0.359723 17.4337 1.01484C18.9587 1.66995 20.338 2.62223 21.4911 3.8161C23.7681 6.17363 25.028 9.33116 24.9995 12.6086C24.971 15.8861 23.6564 19.0212 21.3388 21.3388C19.0212 23.6564 15.8861 24.971 12.6086 24.9995C9.33116 25.028 6.17363 23.7681 3.8161 21.4911ZM19.7286 19.7286C21.605 17.8522 22.6592 15.3072 22.6592 12.6536C22.6592 9.99996 21.605 7.45501 19.7286 5.5786C17.8522 3.7022 15.3072 2.64804 12.6536 2.64804C9.99996 2.64804 7.45501 3.7022 5.5786 5.5786C3.7022 7.45501 2.64804 9.99996 2.64804 12.6536C2.64804 15.3072 3.7022 17.8522 5.5786 19.7286C7.45501 21.605 9.99996 22.6592 12.6536 22.6592C15.3072 22.6592 17.8522 21.605 19.7286 19.7286ZM8.9036 7.6536L18.9036 12.6536L8.9036 17.6536V7.6536Z" fill="white"/>
</svg>
